<svg width="119" height="16" viewBox="0 0 119 16" fill="none" xmlns="http://www.w3.org/2000/svg">
<g clip-path="url(#clip0_497_129401)">
<path d="M58.6886 4.86643C58.2676 4.57656 57.7849 4.36047 57.2388 4.22343C56.698 4.08464 56.1308 4.01611 55.5386 4.01611C54.6879 4.01611 53.9374 4.14614 53.2908 4.40437C52.6477 4.65736 52.1228 5.02279 51.7158 5.49716C51.3087 5.96799 51.0356 6.52667 50.8965 7.17145L53.6308 7.39281C53.7329 7.04143 53.9408 6.75156 54.2544 6.52141C54.5698 6.28598 54.9927 6.16828 55.5246 6.16828C56.0285 6.16828 56.4179 6.28774 56.691 6.52844C56.9693 6.76913 57.1066 7.10819 57.1066 7.54567V7.58783C57.1066 7.81446 57.0204 7.98489 56.8496 8.10083C56.6785 8.21679 56.4036 8.30462 56.0233 8.36435C55.6445 8.42056 55.144 8.48034 54.5239 8.54357C53.9971 8.59446 53.4917 8.68232 53.0106 8.80712C52.5332 8.93183 52.1085 9.11634 51.7334 9.36051C51.358 9.60469 51.0621 9.92795 50.8456 10.3302C50.6288 10.7309 50.5195 11.2281 50.5195 11.8183C50.5195 12.5194 50.6729 13.1061 50.9775 13.5769C51.2877 14.0426 51.7088 14.3957 52.2407 14.6363C52.7728 14.8718 53.3788 14.9895 54.0589 14.9895C54.5856 14.9895 55.0508 14.921 55.4543 14.7822C55.8559 14.6399 56.2011 14.4431 56.4883 14.1936C56.7754 13.9389 57.0046 13.6472 57.1754 13.3152H57.2582V14.7892H60.0629V7.61944C60.0629 6.98699 59.9396 6.44587 59.6946 5.99259C59.4498 5.5358 59.1133 5.16161 58.6886 4.87172V4.86643ZM57.1279 10.9838C57.1279 11.358 57.0326 11.6919 56.8442 11.987C56.6539 12.2821 56.3932 12.5176 56.0602 12.6932C55.7273 12.8637 55.3432 12.9497 54.9081 12.9497C54.4727 12.9497 54.08 12.8461 53.784 12.6388C53.4917 12.4262 53.3471 12.1206 53.3471 11.7182C53.3471 11.4407 53.4195 11.2105 53.562 11.026C53.7048 10.8363 53.9073 10.6869 54.1664 10.5763C54.4254 10.4656 54.7284 10.3848 55.0753 10.3338C55.2375 10.311 55.4171 10.2846 55.6163 10.2583C55.8154 10.2266 56.0145 10.1915 56.2134 10.1546C56.4125 10.1124 56.5905 10.0685 56.7473 10.0229C56.9093 9.97188 57.0363 9.91743 57.1295 9.85594V10.9838H57.1279Z" fill="#0A0A0A"/>
<path d="M65.1332 6.68684C65.4749 6.43735 65.8767 6.31262 66.3347 6.31262C66.8754 6.31262 67.3123 6.47601 67.6472 6.80454C67.9855 7.1278 68.1934 7.55472 68.2726 8.0853H71.0633C71.021 7.26485 70.7972 6.54804 70.3902 5.94016C69.9833 5.33054 69.4301 4.85793 68.7324 4.52061C68.033 4.18331 67.2191 4.01465 66.289 4.01465C65.2106 4.01465 64.2805 4.24831 63.4983 4.71387C62.7161 5.17592 62.1136 5.81894 61.6871 6.64467C61.2662 7.46512 61.0547 8.42088 61.0547 9.51008C61.0547 10.5994 61.2626 11.5358 61.6803 12.3615C62.1011 13.1872 62.7019 13.8337 63.4843 14.2994C64.2698 14.7614 65.2088 14.9915 66.3012 14.9915C67.249 14.9915 68.0719 14.8193 68.7658 14.4733C69.46 14.1272 70.0026 13.6475 70.3974 13.0344C70.7954 12.4159 71.0173 11.7009 71.0633 10.8893H68.2726C68.2163 11.2634 68.0981 11.5832 67.9185 11.8521C67.7422 12.1155 67.5187 12.3159 67.2456 12.4546C66.9777 12.5934 66.6747 12.662 66.3365 12.662C65.8783 12.662 65.4785 12.5372 65.1351 12.2877C64.7932 12.0383 64.5271 11.6764 64.3368 11.202C64.152 10.7259 64.0585 10.1496 64.0585 9.47151C64.0585 8.79331 64.1535 8.23287 64.3422 7.76204C64.5325 7.29119 64.795 6.93456 65.1332 6.68858V6.68684Z" fill="#0A0A0A"/>
<path d="M49.3905 12.5211C49.2513 12.5439 49.1122 12.5562 48.9746 12.5562C48.7755 12.5562 48.5995 12.5263 48.4479 12.4666C48.2999 12.4069 48.1836 12.3032 48.1008 12.1556C48.018 12.0028 47.9759 11.792 47.9759 11.5196V6.37029H49.9806V4.15488H47.9759V1.60742H45.0196V4.15488H43.5625V6.37029H45.0196V11.9079C45.0144 12.6036 45.1606 13.1816 45.4565 13.6385C45.7525 14.0952 46.1665 14.4325 46.6985 14.6486C47.2358 14.8647 47.8594 14.9596 48.573 14.9315C48.957 14.9174 49.283 14.8788 49.5507 14.8138C49.8186 14.754 50.0283 14.7013 50.1763 14.6539L49.7111 12.4596C49.6371 12.4736 49.5315 12.4947 49.3923 12.5211H49.3905Z" fill="#0A0A0A"/>
<path d="M42.0135 7.97425C41.6347 7.63693 41.1856 7.35407 40.6675 7.12217C40.1496 6.89201 39.5805 6.70755 38.9606 6.56876L37.6831 6.2648C37.3731 6.1963 37.0824 6.11197 36.8093 6.01534C36.5362 5.91344 36.2966 5.79572 36.0871 5.66221C35.8791 5.52342 35.7153 5.36003 35.5938 5.17029C35.4775 4.98054 35.4246 4.75918 35.4334 4.50619C35.4334 4.20226 35.5214 3.92994 35.6977 3.68924C35.8773 3.44855 36.1364 3.26232 36.4747 3.12882C36.8129 2.99002 37.227 2.9215 37.7166 2.9215C38.439 2.9215 39.0099 3.0761 39.4307 3.38532C39.8518 3.69453 40.0898 4.12846 40.1462 4.68715H43.0267C43.0124 3.8421 42.7853 3.10069 42.3466 2.45945C41.9078 1.81819 41.2913 1.31749 40.5003 0.957326C39.7145 0.59717 38.7931 0.417969 37.7379 0.417969C36.6826 0.417969 35.7753 0.59717 34.9612 0.957326C34.1474 1.31749 33.5061 1.81819 33.0391 2.45945C32.5758 3.10069 32.3468 3.85087 32.3522 4.70824C32.3468 5.75532 32.6923 6.58809 33.3862 7.2065C34.0804 7.82492 35.0266 8.27994 36.2244 8.56985L37.7732 8.95813C38.2911 9.08284 38.728 9.22161 39.0855 9.37269C39.4468 9.52557 39.7197 9.71005 39.9048 9.92615C40.095 10.1422 40.1885 10.411 40.1885 10.729C40.1885 11.0699 40.0844 11.372 39.8767 11.6356C39.6688 11.899 39.3744 12.1047 38.9956 12.2522C38.6205 12.3998 38.1782 12.4735 37.6709 12.4735C37.1634 12.4735 36.6878 12.3945 36.2756 12.2382C35.8685 12.0765 35.5427 11.8394 35.2979 11.5249C35.0583 11.2069 34.9207 10.8099 34.889 10.3337H31.9805C32.0033 11.3527 32.2518 12.2101 32.724 12.9005C33.2014 13.5875 33.862 14.1074 34.7094 14.457C35.5603 14.8084 36.5593 14.9824 37.7078 14.9824C38.8565 14.9824 39.8518 14.8102 40.6711 14.4641C41.4938 14.1127 42.1246 13.6225 42.5579 12.9901C42.9966 12.3541 43.2204 11.6022 43.2238 10.7343C43.2186 10.144 43.1111 9.62039 42.8979 9.16365C42.69 8.70688 42.3959 8.30981 42.0171 7.97248L42.0135 7.97425Z" fill="#0A0A0A"/>
<path d="M105.058 4.49954C104.508 4.17628 103.861 4.01465 103.121 4.01465C102.33 4.01465 101.657 4.19735 101.102 4.56103C100.548 4.92119 100.151 5.4096 99.9152 6.02802H99.79V4.15168H96.9727V14.7825H99.9292V8.63697C99.9342 8.18016 100.019 7.79014 100.186 7.46688C100.357 7.1401 100.593 6.89063 100.894 6.72021C101.199 6.54981 101.551 6.46371 101.95 6.46371C102.542 6.46371 103.007 6.64818 103.345 7.01713C103.684 7.38079 103.849 7.88854 103.845 8.54034V14.7825H106.802V8.01327C106.802 7.18755 106.648 6.47601 106.344 5.88219C106.038 5.28309 105.61 4.82106 105.059 4.49777L105.058 4.49954Z" fill="#0A0A0A"/>
<path d="M81.9943 4.15297H78.6013L75.1868 8.18849H75.0266V0.609375H72.0703V14.7837H75.0266V11.4088L75.8283 10.497L78.7332 14.7837H82.1952L78.0408 8.7577L81.9943 4.15297Z" fill="#0A0A0A"/>
<path d="M118.005 10.2231V9.41319C118.005 8.50839 117.879 7.7196 117.623 7.0467C117.369 6.36855 117.012 5.80636 116.554 5.35835C116.101 4.91035 115.568 4.57654 114.957 4.35518C114.352 4.12855 113.696 4.01611 112.993 4.01611C111.948 4.01611 111.036 4.24627 110.259 4.70832C109.486 5.17038 108.886 5.81339 108.462 6.63911C108.036 7.46484 107.824 8.42408 107.824 9.51862C107.824 10.6132 108.037 11.6111 108.462 12.4333C108.888 13.2502 109.494 13.8827 110.28 14.3289C111.071 14.7716 112.016 14.993 113.111 14.993C113.99 14.993 114.766 14.8595 115.437 14.5925C116.113 14.3201 116.663 13.9424 117.089 13.4575C117.519 12.9691 117.805 12.3963 117.942 11.7411L115.208 11.5618C115.106 11.8289 114.958 12.0555 114.764 12.24C114.57 12.4245 114.336 12.5632 114.063 12.6546C113.789 12.7477 113.488 12.7934 113.16 12.7934C112.665 12.7934 112.237 12.6898 111.876 12.4825C111.515 12.2751 111.235 11.98 111.036 11.5969C110.842 11.214 110.744 10.759 110.744 10.2337V10.2266H118.004L118.005 10.2231ZM111.849 6.52667C112.197 6.31937 112.595 6.21571 113.044 6.21571C113.494 6.21571 113.851 6.31058 114.175 6.50031C114.503 6.6848 114.76 6.94129 114.945 7.26806C115.13 7.59484 115.224 7.97257 115.224 8.39598H110.754C110.772 8.01473 110.867 7.66511 111.047 7.35065C111.24 7.00453 111.51 6.73047 111.851 6.52667H111.849Z" fill="#0A0A0A"/>
<path d="M92.4148 1.27532C91.4111 0.702582 90.2816 0.417969 89.0293 0.417969C87.776 0.417969 86.6334 0.704339 85.6288 1.27532C84.6245 1.84279 83.8314 2.66852 83.2486 3.7525C82.6657 4.83649 82.375 6.15239 82.375 7.69667C82.375 9.24091 82.6657 10.5498 83.2486 11.6338C83.8314 12.7177 84.6245 13.547 85.6288 14.118C86.6334 14.6907 87.7663 14.9754 89.0293 14.9754C90.2923 14.9754 91.4127 14.6925 92.4148 14.125C93.4226 13.5523 94.2188 12.7248 94.8025 11.6408C95.3904 10.5568 95.6834 9.24091 95.6834 7.69667C95.6834 6.15239 95.3888 4.83649 94.8025 3.7525C94.2188 2.66852 93.4226 1.84279 92.4148 1.27532ZM92.1858 10.2319C91.8903 10.9187 91.4704 11.4405 90.9303 11.7954C90.3893 12.1503 89.7547 12.3277 89.0293 12.3277C88.303 12.3277 87.669 12.1503 87.1283 11.7954C86.5873 11.4405 86.1664 10.9187 85.8653 10.2319C85.5689 9.54486 85.4207 8.69984 85.4207 7.69841C85.4207 6.69701 85.5689 5.8537 85.8653 5.16502C86.1664 4.4781 86.5873 3.95629 87.1283 3.6014C87.669 3.24653 88.303 3.06908 89.0293 3.06908C89.7547 3.06908 90.3893 3.24653 90.9303 3.6014C91.4704 3.95629 91.8903 4.4781 92.1858 5.16502C92.4872 5.85196 92.637 6.69701 92.637 7.69841C92.637 8.69984 92.4872 9.54315 92.1858 10.2319Z" fill="#0A0A0A"/>
<path d="M16.9404 0.377441H0.03125V0.416093L0.0312505 10.1052H8.51403V5.24219L16.9404 0.377441Z" fill="#05C168"/>
<path d="M8.51562 5.24219H16.9984V0.377441H12.9465C10.4994 0.377441 8.51562 1.5194 8.51562 2.92842V5.24219Z" fill="url(#paint0_linear_497_129401)"/>
<path d="M17.0006 5.24219V10.1051L8.57422 14.97H17.0006H25.4833V5.24219H17.0006Z" fill="#05C168"/>
<path d="M16.9984 10.1055H8.51562V14.9702H12.5677C15.0148 14.9702 16.9984 13.8283 16.9984 12.4193V10.1055Z" fill="url(#paint1_linear_497_129401)"/>
</g>
<defs>
<linearGradient id="paint0_linear_497_129401" x1="16.9984" y1="2.80959" x2="8.51562" y2="2.80959" gradientUnits="userSpaceOnUse">
<stop stop-color="#05C168"/>
<stop offset="0.6875" stop-color="#04934F"/>
<stop offset="0.838542" stop-color="#048C4C"/>
<stop offset="1" stop-color="#038044"/>
</linearGradient>
<linearGradient id="paint1_linear_497_129401" x1="8.49157" y1="12.5376" x2="17.0344" y2="12.5376" gradientUnits="userSpaceOnUse">
<stop stop-color="#05C168"/>
<stop offset="0.6875" stop-color="#04934F"/>
<stop offset="0.838542" stop-color="#048C4C"/>
<stop offset="1" stop-color="#038044"/>
</linearGradient>
<clipPath id="clip0_497_129401">
<rect width="118.333" height="15" fill="white" transform="translate(0 0.5)"/>
</clipPath>
</defs>
</svg>
